<?xml version="1.0" encoding="UTF-8"?>
<!DOCTYPE svg PUBLIC "-//W3C//DTD SVG 1.1//EN" "http://www.w3.org/Graphics/SVG/1.1/DTD/svg11.dtd">
<svg xmlns="http://www.w3.org/2000/svg" version="1.1" width="197px" height="200px" style="shape-rendering:geometricPrecision; text-rendering:geometricPrecision; image-rendering:optimizeQuality; fill-rule:evenodd; clip-rule:evenodd" xmlns:xlink="http://www.w3.org/1999/xlink">
<g><path style="opacity:0.887" fill="#060302" d="M 73.5,-0.5 C 74.5,-0.5 75.5,-0.5 76.5,-0.5C 72.6365,4.01423 71.8032,9.01423 74,14.5C 79.0917,18.2984 84.5917,21.4651 90.5,24C 93.3307,26.0007 95.9974,28.1673 98.5,30.5C 98.4142,31.4959 98.7476,32.3292 99.5,33C 101.692,33.926 103.692,35.0927 105.5,36.5C 106.934,39.0472 108.6,41.3805 110.5,43.5C 112.02,47.7004 111.52,51.7004 109,55.5C 104.817,58.8363 100.317,61.503 95.5,63.5C 93.9142,64.1481 92.2475,64.6481 90.5,65C 94.6309,65.275 98.2976,66.6083 101.5,69C 94.8857,68.4571 88.219,68.4571 81.5,69C 79.8588,70.129 78.8588,71.629 78.5,73.5C 77.1974,75.7569 77.864,77.5902 80.5,79C 80.1667,79.1667 79.8333,79.3333 79.5,79.5C 77.4807,77.8103 75.4807,76.1436 73.5,74.5C 72.2475,72.6612 72.2475,70.8278 73.5,69C 61.1871,69.4083 49.1871,71.7416 37.5,76C 39.5183,76.5046 41.5183,77.0046 43.5,77.5C 51.5276,79.8863 59.8609,81.3863 68.5,82C 86.899,83.0073 105.232,82.3406 123.5,80C 124.056,79.6174 124.389,79.1174 124.5,78.5C 130.195,78.0347 135.695,76.7014 141,74.5C 141.945,74.9054 142.612,75.572 143,76.5C 142.639,81.8 144.139,82.6333 147.5,79C 156.761,75.0376 165.261,76.2042 173,82.5C 175.788,89.1105 174.288,94.6105 168.5,99C 156.655,106.397 143.988,112.064 130.5,116C 129.833,116.667 129.167,117.333 128.5,118C 141.829,118.331 154.495,121.331 166.5,127C 176.044,135.004 175.71,142.504 165.5,149.5C 165.167,149.5 164.833,149.5 164.5,149.5C 163.833,149.5 163.5,149.833 163.5,150.5C 162.833,150.5 162.167,150.5 161.5,150.5C 160.833,150.5 160.5,150.833 160.5,151.5C 157.729,151.421 155.063,151.921 152.5,153C 155.817,153.781 158.817,153.281 161.5,151.5C 165.081,151.862 168.081,150.862 170.5,148.5C 172.786,148.405 174.786,147.738 176.5,146.5C 182.879,144.439 189.546,143.439 196.5,143.5C 196.5,144.167 196.5,144.833 196.5,145.5C 192.466,145.672 188.466,146.172 184.5,147C 174.28,150.407 163.946,153.407 153.5,156C 150.633,156.801 147.966,156.634 145.5,155.5C 143.285,152.66 140.618,151.993 137.5,153.5C 131.975,154.929 126.975,157.429 122.5,161C 120.866,161.494 119.199,161.66 117.5,161.5C 114.486,157.598 115.153,154.265 119.5,151.5C 120.386,152.325 120.719,153.325 120.5,154.5C 119.075,155.922 118.075,157.589 117.5,159.5C 117.56,160.043 117.893,160.376 118.5,160.5C 123.628,157.867 128.628,155.033 133.5,152C 136.817,151.502 140.15,151.335 143.5,151.5C 146.073,152.555 148.739,152.722 151.5,152C 156.177,150.85 160.177,148.683 163.5,145.5C 164.167,145.5 164.5,145.167 164.5,144.5C 165.167,144.5 165.5,144.167 165.5,143.5C 166.117,143.389 166.617,143.056 167,142.5C 167.667,140.5 167.667,138.5 167,136.5C 157.433,127.139 145.933,122.972 132.5,124C 137.178,125.676 141.011,128.509 144,132.5C 144.885,135.538 144.385,138.205 142.5,140.5C 141.342,143.822 139.008,145.988 135.5,147C 126.491,148.964 117.491,148.964 108.5,147C 100.115,143.484 91.4486,140.651 82.5,138.5C 75.0113,137.344 67.3446,137.178 59.5,138C 58.2625,138.232 57.2625,138.732 56.5,139.5C 52.0583,139.732 48.0583,141.065 44.5,143.5C 41.6689,144.079 39.3356,145.412 37.5,147.5C 32.0421,151.067 28.5421,156.067 27,162.5C 26.6124,159.151 26.7791,155.817 27.5,152.5C 27.5,152.167 27.5,151.833 27.5,151.5C 30.5032,145.983 34.5032,141.149 39.5,137C 44.9799,133.593 50.6465,130.76 56.5,128.5C 67.8156,125.835 79.1489,125.835 90.5,128.5C 91.7261,128.48 92.7261,128.147 93.5,127.5C 97.0525,126.724 100.386,125.391 103.5,123.5C 107.382,121.066 111.048,118.399 114.5,115.5C 123.196,108.113 127.529,98.7796 127.5,87.5C 123.008,88.7002 118.674,90.0335 114.5,91.5C 110.5,91.8333 106.5,92.1667 102.5,92.5C 87.9377,93.2976 73.6044,91.9642 59.5,88.5C 52.1468,86.0474 44.8135,83.3807 37.5,80.5C 37.1667,80.5 36.8333,80.5 36.5,80.5C 34.1997,78.016 31.5331,76.016 28.5,74.5C 27.1153,73.6977 27.282,73.0311 29,72.5C 43.769,67.6774 58.9357,65.1774 74.5,65C 76.1667,63.3333 77.8333,61.6667 79.5,60C 86.2471,56.5447 92.7471,52.7114 99,48.5C 102.871,42.5593 102.038,37.3927 96.5,33C 89.1835,31.3338 81.8501,29.6671 74.5,28C 67.1562,23.4636 64.6562,16.9636 67,8.5C 68.6107,5.06241 70.7774,2.06241 73.5,-0.5 Z M 73.5,74.5 C 63.3069,73.9535 53.3069,74.9535 43.5,77.5C 41.5183,77.0046 39.5183,76.5046 37.5,76C 49.1871,71.7416 61.1871,69.4083 73.5,69C 72.2475,70.8278 72.2475,72.6612 73.5,74.5 Z M 133.5,112.5 C 136.927,107.234 139.594,101.567 141.5,95.5C 144.61,98.0787 147.943,99.412 151.5,99.5C 148.077,96.5795 147.744,93.4129 150.5,90C 156.076,86.1205 161.909,85.6205 168,88.5C 168.755,91.4973 167.922,93.9973 165.5,96C 155.491,102.729 144.825,108.229 133.5,112.5 Z M 163.5,145.5 C 160.177,148.683 156.177,150.85 151.5,152C 148.739,152.722 146.073,152.555 143.5,151.5C 150.127,149.739 156.793,147.739 163.5,145.5 Z M 111.5,153.5 C 112.552,153.351 113.552,153.517 114.5,154C 113.672,155.992 112.339,157.492 110.5,158.5C 111.038,156.883 111.371,155.216 111.5,153.5 Z M 117.5,159.5 C 118.075,157.589 119.075,155.922 120.5,154.5C 122.402,153.489 124.402,153.322 126.5,154C 123.806,156.347 120.806,158.18 117.5,159.5 Z"/></g>
<g><path style="opacity:0.502" fill="#be945d" d="M 98.5,30.5 C 100.117,31.038 101.784,31.3713 103.5,31.5C 104.441,33.0495 105.107,34.7162 105.5,36.5C 103.692,35.0927 101.692,33.926 99.5,33C 98.7476,32.3292 98.4142,31.4959 98.5,30.5 Z"/></g>
<g><path style="opacity:0.958" fill="#834931" d="M 120.5,38.5 C 118.488,39.341 117.155,40.841 116.5,43C 114.276,43.0395 112.276,43.2062 110.5,43.5C 108.6,41.3805 106.934,39.0472 105.5,36.5C 105.107,34.7162 104.441,33.0495 103.5,31.5C 105.23,28.2709 107.897,25.9376 111.5,24.5C 117.513,27.1843 120.513,31.851 120.5,38.5 Z"/></g>
<g><path style="opacity:0.977" fill="#ca9e62" d="M 120.5,38.5 C 125.977,43.0317 126.81,48.365 123,54.5C 120.331,57.1642 117.164,58.9976 113.5,60C 107.595,61.7062 101.595,62.8728 95.5,63.5C 100.317,61.503 104.817,58.8363 109,55.5C 111.52,51.7004 112.02,47.7004 110.5,43.5C 112.276,43.2062 114.276,43.0395 116.5,43C 117.155,40.841 118.488,39.341 120.5,38.5 Z"/></g>
<g><path style="opacity:0.997" fill="#814630" d="M 78.5,73.5 C 93.8628,73.6897 109.196,75.3563 124.5,78.5C 124.389,79.1174 124.056,79.6174 123.5,80C 105.232,82.3406 86.899,83.0073 68.5,82C 59.8609,81.3863 51.5276,79.8863 43.5,77.5C 53.3069,74.9535 63.3069,73.9535 73.5,74.5C 75.4807,76.1436 77.4807,77.8103 79.5,79.5C 79.8333,79.3333 80.1667,79.1667 80.5,79C 77.864,77.5902 77.1974,75.7569 78.5,73.5 Z"/></g>
<g><path style="opacity:0.993" fill="#cba165" d="M 28.5,74.5 C 31.5331,76.016 34.1997,78.016 36.5,80.5C 35.7659,81.7079 35.4326,83.0413 35.5,84.5C 35.5,84.8333 35.5,85.1667 35.5,85.5C 33.3745,96.4621 36.3745,105.962 44.5,114C 40.978,113.68 38.3113,111.847 36.5,108.5C 30.8806,99.3558 28.3806,89.3558 29,78.5C 27.8967,80.6294 27.3967,82.9627 27.5,85.5C 27.6894,89.9196 28.3561,94.2529 29.5,98.5C 24.904,90.7385 24.5707,82.7385 28.5,74.5 Z"/></g>
<g><path style="opacity:0.95" fill="#773d26" d="M 37.5,80.5 C 44.8135,83.3807 52.1468,86.0474 59.5,88.5C 58.7611,88.369 58.0944,88.5357 57.5,89C 58.8184,92.2688 58.8184,95.4355 57.5,98.5C 51.5835,97.0272 45.9168,94.8605 40.5,92C 37.9881,90.4729 36.3215,88.3063 35.5,85.5C 35.5,85.1667 35.5,84.8333 35.5,84.5C 36.6737,83.4863 37.3404,82.153 37.5,80.5 Z"/></g>
<g><path style="opacity:0.996" fill="#6d3720" d="M 114.5,115.5 C 112.586,108.108 111.919,100.441 112.5,92.5C 113.873,92.6567 115.207,92.49 116.5,92C 115.906,91.5357 115.239,91.369 114.5,91.5C 118.674,90.0335 123.008,88.7002 127.5,87.5C 127.529,98.7796 123.196,108.113 114.5,115.5 Z"/></g>
<g><path style="opacity:0.991" fill="#884c36" d="M 59.5,88.5 C 73.6044,91.9642 87.9377,93.2976 102.5,92.5C 102.217,93.2891 101.717,93.9558 101,94.5C 100.333,104.167 100.333,113.833 101,123.5C 101.977,122.226 102.811,122.226 103.5,123.5C 100.386,125.391 97.0525,126.724 93.5,127.5C 87.6918,127.179 82.8585,124.846 79,120.5C 77.1935,116.082 75.1935,111.749 73,107.5C 68.4423,103.309 63.2756,100.309 57.5,98.5C 58.8184,95.4355 58.8184,92.2688 57.5,89C 58.0944,88.5357 58.7611,88.369 59.5,88.5 Z"/></g>
<g><path style="opacity:0.996" fill="#7d432c" d="M 114.5,91.5 C 115.239,91.369 115.906,91.5357 116.5,92C 115.207,92.49 113.873,92.6567 112.5,92.5C 111.919,100.441 112.586,108.108 114.5,115.5C 111.048,118.399 107.382,121.066 103.5,123.5C 102.811,122.226 101.977,122.226 101,123.5C 100.333,113.833 100.333,104.167 101,94.5C 101.717,93.9558 102.217,93.2891 102.5,92.5C 106.5,92.1667 110.5,91.8333 114.5,91.5 Z"/></g>
<g><path style="opacity:0.452" fill="#221c14" d="M 36.5,108.5 C 32.6927,106.225 30.3593,102.892 29.5,98.5C 28.3561,94.2529 27.6894,89.9196 27.5,85.5C 27.3967,82.9627 27.8967,80.6294 29,78.5C 28.3806,89.3558 30.8806,99.3558 36.5,108.5 Z"/></g>
<g><path style="opacity:0.992" fill="#c89d61" d="M 43.5,122.5 C 40.9908,123.682 39.6574,125.682 39.5,128.5C 42.6967,128.595 45.6967,127.928 48.5,126.5C 49.8333,126.5 51.1667,126.5 52.5,126.5C 53.5137,127.674 54.847,128.34 56.5,128.5C 50.6465,130.76 44.9799,133.593 39.5,137C 34.5032,141.149 30.5032,145.983 27.5,151.5C 26.8333,151.167 26.1667,150.833 25.5,150.5C 25.9528,149.542 26.6195,148.708 27.5,148C 24.2538,148.317 20.9205,148.483 17.5,148.5C 10.6694,147.085 4.66943,144.085 -0.5,139.5C -0.5,138.167 -0.5,136.833 -0.5,135.5C 3.26839,131.108 7.93506,127.941 13.5,126C 21.035,123.826 28.7017,122.159 36.5,121C 33.8333,120.333 31.1667,120.333 28.5,121C 22.7787,122.111 17.112,123.277 11.5,124.5C 20.6506,120.421 30.3173,118.921 40.5,120C 41.5707,120.852 42.5707,121.685 43.5,122.5 Z"/></g>
<g><path style="opacity:0.794" fill="#080503" d="M 74.5,122.5 C 68.8236,122.334 63.1569,122.501 57.5,123C 54.135,123.505 51.135,124.672 48.5,126.5C 45.6967,127.928 42.6967,128.595 39.5,128.5C 39.6574,125.682 40.9908,123.682 43.5,122.5C 53.9243,119.842 64.2576,119.842 74.5,122.5 Z"/></g>
<g><path style="opacity:0.451" fill="#723e28" d="M 74.5,122.5 C 76.7049,122.846 76.8716,123.513 75,124.5C 67.1745,122.857 59.6745,123.524 52.5,126.5C 51.1667,126.5 49.8333,126.5 48.5,126.5C 51.135,124.672 54.135,123.505 57.5,123C 63.1569,122.501 68.8236,122.334 74.5,122.5 Z"/></g>
<g><path style="opacity:0.996" fill="#824831" d="M 133.5,130.5 C 131.615,132.053 130.615,134.053 130.5,136.5C 124.833,133.691 118.833,132.858 112.5,134C 109.823,134.814 107.823,136.314 106.5,138.5C 104.668,137.86 104.335,136.86 105.5,135.5C 110.72,133.057 116.053,130.89 121.5,129C 125.731,128.081 129.731,128.581 133.5,130.5 Z"/></g>
<g><path style="opacity:0.439" fill="#be9b5f" d="M 3.5,129.5 C 2.83333,130.833 1.83333,131.833 0.5,132.5C 0.5,130.5 1.5,129.5 3.5,129.5 Z"/></g>
<g><path style="opacity:0.882" fill="#433624" d="M -0.5,135.5 C -0.5,134.5 -0.5,133.5 -0.5,132.5C -0.166667,132.5 0.166667,132.5 0.5,132.5C 1.83333,131.833 2.83333,130.833 3.5,129.5C 5.48441,126.836 8.15107,125.169 11.5,124.5C 17.112,123.277 22.7787,122.111 28.5,121C 31.1667,120.333 33.8333,120.333 36.5,121C 28.7017,122.159 21.035,123.826 13.5,126C 7.93506,127.941 3.26839,131.108 -0.5,135.5 Z"/></g>
<g><path style="opacity:0.996" fill="#c79b60" d="M 130.5,136.5 C 133.833,138.159 135.5,140.825 135.5,144.5C 124.773,147.243 115.106,145.243 106.5,138.5C 107.823,136.314 109.823,134.814 112.5,134C 118.833,132.858 124.833,133.691 130.5,136.5 Z"/></g>
<g><path style="opacity:0.996" fill="#6c371f" d="M 133.5,130.5 C 138.657,131.986 141.657,135.319 142.5,140.5C 140.61,142.578 138.276,143.911 135.5,144.5C 135.5,140.825 133.833,138.159 130.5,136.5C 130.615,134.053 131.615,132.053 133.5,130.5 Z"/></g>
<g><path style="opacity:0.996" fill="#9f6b46" d="M 82.5,138.5 C 73.8,138.289 65.1333,138.623 56.5,139.5C 57.2625,138.732 58.2625,138.232 59.5,138C 67.3446,137.178 75.0113,137.344 82.5,138.5 Z"/></g>
<g><path style="opacity:0.985" fill="#c69a60" d="M 165.5,143.5 C 164.833,143.5 164.5,143.833 164.5,144.5C 163.833,144.5 163.5,144.833 163.5,145.5C 156.793,147.739 150.127,149.739 143.5,151.5C 140.15,151.335 136.817,151.502 133.5,152C 128.628,155.033 123.628,157.867 118.5,160.5C 117.893,160.376 117.56,160.043 117.5,159.5C 120.806,158.18 123.806,156.347 126.5,154C 124.402,153.322 122.402,153.489 120.5,154.5C 120.719,153.325 120.386,152.325 119.5,151.5C 115.153,154.265 114.486,157.598 117.5,161.5C 116.038,162.471 114.705,162.138 113.5,160.5C 112.947,158.343 111.947,158.51 110.5,161C 106.898,161.323 106.898,160.49 110.5,158.5C 112.339,157.492 113.672,155.992 114.5,154C 113.552,153.517 112.552,153.351 111.5,153.5C 105.711,155.075 104.378,158.409 107.5,163.5C 105.027,163.912 103.694,162.912 103.5,160.5C 103.878,158.079 104.545,155.746 105.5,153.5C 106.833,153.167 106.833,152.833 105.5,152.5C 104.178,152.33 103.011,152.663 102,153.5C 100.725,155.717 99.7246,158.051 99,160.5C 97.0027,170.152 95.1694,179.819 93.5,189.5C 92.5028,189.53 91.8361,189.03 91.5,188C 93.4492,180.166 94.4492,172.333 94.5,164.5C 95.1667,164.5 95.5,164.167 95.5,163.5C 96.3382,163.158 96.6716,162.492 96.5,161.5C 96.366,159.708 96.6993,158.042 97.5,156.5C 98.4793,155.235 99.4793,153.901 100.5,152.5C 93.735,149.69 86.735,147.69 79.5,146.5C 78.791,145.596 77.791,145.263 76.5,145.5C 75.5,145.5 74.5,145.5 73.5,145.5C 72.1667,144.167 70.8333,144.167 69.5,145.5C 58.6992,147.498 50.8658,153.498 46,163.5C 44.1683,170.856 46.3349,176.523 52.5,180.5C 50.4471,180.598 48.7804,179.931 47.5,178.5C 41.4055,169.004 42.7389,160.504 51.5,153C 46.6006,151.615 44.2673,148.448 44.5,143.5C 48.0583,141.065 52.0583,139.732 56.5,139.5C 65.1333,138.623 73.8,138.289 82.5,138.5C 91.4486,140.651 100.115,143.484 108.5,147C 117.491,148.964 126.491,148.964 135.5,147C 139.008,145.988 141.342,143.822 142.5,140.5C 144.385,138.205 144.885,135.538 144,132.5C 141.011,128.509 137.178,125.676 132.5,124C 145.933,122.972 157.433,127.139 167,136.5C 167.667,138.5 167.667,140.5 167,142.5C 166.617,143.056 166.117,143.389 165.5,143.5 Z M 79.5,146.5 C 86.735,147.69 93.735,149.69 100.5,152.5C 99.4793,153.901 98.4793,155.235 97.5,156.5C 96.791,155.596 95.791,155.263 94.5,155.5C 93.7611,155.369 93.0944,155.536 92.5,156C 91.0229,157.812 89.6896,159.645 88.5,161.5C 87.1805,160.058 85.5138,159.392 83.5,159.5C 77.0246,161.12 74.6913,165.12 76.5,171.5C 72.6654,173.25 68.9988,175.25 65.5,177.5C 63.139,177.674 60.8056,178.007 58.5,178.5C 56.5853,178.784 54.9187,178.451 53.5,177.5C 55.1667,176.167 56.8333,174.833 58.5,173.5C 65.086,168.459 66.4193,162.459 62.5,155.5C 65.5248,155.877 68.5248,156.044 71.5,156C 69.9991,154.748 68.3325,153.748 66.5,153C 65.1772,152.184 64.5106,151.017 64.5,149.5C 66.6568,148.593 68.9902,147.927 71.5,147.5C 73.5,147.833 75.5,148.167 77.5,148.5C 78.8333,148.5 79.5,147.833 79.5,146.5 Z M 111.5,153.5 C 112.552,153.351 113.552,153.517 114.5,154C 113.672,155.992 112.339,157.492 110.5,158.5C 111.038,156.883 111.371,155.216 111.5,153.5 Z M 117.5,159.5 C 118.075,157.589 119.075,155.922 120.5,154.5C 122.402,153.489 124.402,153.322 126.5,154C 123.806,156.347 120.806,158.18 117.5,159.5 Z M 83.5,162.5 C 84.2972,165.41 83.2972,167.743 80.5,169.5C 80.1663,166.509 81.1663,164.176 83.5,162.5 Z"/></g>
<g><path style="opacity:0.657" fill="#6e5a3b" d="M 71.5,147.5 C 72.9187,146.549 74.5853,146.216 76.5,146.5C 76.8333,147.167 77.1667,147.833 77.5,148.5C 75.5,148.167 73.5,147.833 71.5,147.5 Z"/></g>
<g><path style="opacity:0.09" fill="#050302" d="M 76.5,146.5 C 77.5,146.5 78.5,146.5 79.5,146.5C 79.5,147.833 78.8333,148.5 77.5,148.5C 77.1667,147.833 76.8333,147.167 76.5,146.5 Z"/></g>
<g><path style="opacity:0.125" fill="#c99c62" d="M 176.5,146.5 C 174.786,147.738 172.786,148.405 170.5,148.5C 172.102,146.926 174.102,146.259 176.5,146.5 Z"/></g>
<g><path style="opacity:0.996" fill="#874c35" d="M 44.5,143.5 C 44.2673,148.448 46.6006,151.615 51.5,153C 42.7389,160.504 41.4055,169.004 47.5,178.5C 44.8333,178.5 42.1667,178.5 39.5,178.5C 39.7683,175.881 39.435,173.381 38.5,171C 39.4158,170.722 40.0825,170.222 40.5,169.5C 41.8799,169.038 42.5466,168.038 42.5,166.5C 40.9338,163.425 38.7671,160.758 36,158.5C 35.3224,156.402 35.4891,154.402 36.5,152.5C 38.7843,151.323 39.1177,149.656 37.5,147.5C 39.3356,145.412 41.6689,144.079 44.5,143.5 Z"/></g>
<g><path style="opacity:0.741" fill="#6b5435" d="M 25.5,150.5 C 25.1667,150.5 24.8333,150.5 24.5,150.5C 22.3926,149.532 20.0593,149.198 17.5,149.5C 17.5,149.167 17.5,148.833 17.5,148.5C 20.9205,148.483 24.2538,148.317 27.5,148C 26.6195,148.708 25.9528,149.542 25.5,150.5 Z"/></g>
<g><path style="opacity:0.692" fill="#000000" d="M 17.5,149.5 C 20.0593,149.198 22.3926,149.532 24.5,150.5C 23.6879,151.993 22.3545,152.66 20.5,152.5C 17.4923,152.841 16.4923,151.841 17.5,149.5 Z"/></g>
<g><path style="opacity:1" fill="#886a43" d="M 170.5,148.5 C 168.081,150.862 165.081,151.862 161.5,151.5C 161.5,151.167 161.5,150.833 161.5,150.5C 162.167,150.5 162.833,150.5 163.5,150.5C 164.167,150.5 164.5,150.167 164.5,149.5C 164.833,149.5 165.167,149.5 165.5,149.5C 167.117,148.962 168.784,148.629 170.5,148.5 Z"/></g>
<g><path style="opacity:0.98" fill="#cc9f62" d="M 64.5,149.5 C 64.5106,151.017 65.1772,152.184 66.5,153C 68.3325,153.748 69.9991,154.748 71.5,156C 68.5248,156.044 65.5248,155.877 62.5,155.5C 62.5,154.833 62.1667,154.5 61.5,154.5C 59.5,154.5 57.5,154.5 55.5,154.5C 55.5,154.167 55.5,153.833 55.5,153.5C 57.8355,150.835 60.8355,149.502 64.5,149.5 Z"/></g>
<g><path style="opacity:0.471" fill="#9c7f52" d="M 160.5,151.5 C 160.833,151.5 161.167,151.5 161.5,151.5C 158.817,153.281 155.817,153.781 152.5,153C 155.063,151.921 157.729,151.421 160.5,151.5 Z"/></g>
<g><path style="opacity:0.996" fill="#0f0704" d="M 36.5,152.5 C 35.4891,154.402 35.3224,156.402 36,158.5C 38.7671,160.758 40.9338,163.425 42.5,166.5C 42.5466,168.038 41.8799,169.038 40.5,169.5C 33.5447,168.628 30.7113,164.628 32,157.5C 32.8372,155.156 34.1706,153.156 36,151.5C 36.3988,151.728 36.5654,152.062 36.5,152.5 Z"/></g>
<g><path style="opacity:0.224" fill="#c79d63" d="M 137.5,153.5 C 140.618,151.993 143.285,152.66 145.5,155.5C 142.833,154.833 140.167,154.167 137.5,153.5 Z"/></g>
<g><path style="opacity:0.999" fill="#6f3820" d="M 55.5,154.5 C 57.5,154.5 59.5,154.5 61.5,154.5C 62.1667,154.5 62.5,154.833 62.5,155.5C 66.4193,162.459 65.086,168.459 58.5,173.5C 58.0821,167.07 57.0821,160.736 55.5,154.5 Z"/></g>
<g><path style="opacity:0.92" fill="#17130d" d="M 111.5,153.5 C 111.371,155.216 111.038,156.883 110.5,158.5C 106.898,160.49 106.898,161.323 110.5,161C 111.947,158.51 112.947,158.343 113.5,160.5C 111.947,162.385 109.947,163.385 107.5,163.5C 104.378,158.409 105.711,155.075 111.5,153.5 Z"/></g>
<g><path style="opacity:0.495" fill="#19140e" d="M 105.5,152.5 C 105.5,152.833 105.5,153.167 105.5,153.5C 104.545,155.746 103.878,158.079 103.5,160.5C 102.685,161.429 101.852,162.429 101,163.5C 99.1759,172.125 97.6759,180.792 96.5,189.5C 95.5,189.5 94.5,189.5 93.5,189.5C 95.1694,179.819 97.0027,170.152 99,160.5C 99.7246,158.051 100.725,155.717 102,153.5C 103.011,152.663 104.178,152.33 105.5,152.5 Z"/></g>
<g><path style="opacity:0.967" fill="#783e27" d="M 37.5,147.5 C 39.1177,149.656 38.7843,151.323 36.5,152.5C 36.5654,152.062 36.3988,151.728 36,151.5C 34.1706,153.156 32.8372,155.156 32,157.5C 30.7113,164.628 33.5447,168.628 40.5,169.5C 40.0825,170.222 39.4158,170.722 38.5,171C 39.435,173.381 39.7683,175.881 39.5,178.5C 26.2904,174.081 22.2904,165.414 27.5,152.5C 26.7791,155.817 26.6124,159.151 27,162.5C 28.5421,156.067 32.0421,151.067 37.5,147.5 Z"/></g>
<g><path style="opacity:0.996" fill="#844932" d="M 55.5,153.5 C 55.5,153.833 55.5,154.167 55.5,154.5C 57.0821,160.736 58.0821,167.07 58.5,173.5C 56.8333,174.833 55.1667,176.167 53.5,177.5C 48.8164,176.503 46.8164,173.503 47.5,168.5C 47.8179,162.195 50.4846,157.195 55.5,153.5 Z"/></g>
<g><path style="opacity:0.504" fill="#14100a" d="M 94.5,155.5 C 95.791,155.263 96.791,155.596 97.5,156.5C 96.6993,158.042 96.366,159.708 96.5,161.5C 95.6618,161.842 95.3284,162.508 95.5,163.5C 94.8333,163.5 94.5,163.833 94.5,164.5C 91.6464,176.064 88.6464,187.73 85.5,199.5C 84.8333,199.5 84.1667,199.5 83.5,199.5C 86.3165,187.251 88.8165,174.918 91,162.5C 92.1932,160.114 93.3599,157.78 94.5,155.5 Z"/></g>
<g><path style="opacity:0.509" fill="#1d1711" d="M 69.5,145.5 C 70.8333,145.5 72.1667,145.5 73.5,145.5C 74.5,145.5 75.5,145.5 76.5,145.5C 76.5,145.833 76.5,146.167 76.5,146.5C 74.5853,146.216 72.9187,146.549 71.5,147.5C 68.9902,147.927 66.6568,148.593 64.5,149.5C 60.8355,149.502 57.8355,150.835 55.5,153.5C 50.4846,157.195 47.8179,162.195 47.5,168.5C 46.8164,173.503 48.8164,176.503 53.5,177.5C 54.9187,178.451 56.5853,178.784 58.5,178.5C 60.9533,179.645 63.2866,179.312 65.5,177.5C 69.9334,176.786 73.6,174.786 76.5,171.5C 78.5695,171.417 78.9028,170.417 77.5,168.5C 78.2841,164.573 80.2841,161.573 83.5,159.5C 85.5138,159.392 87.1805,160.058 88.5,161.5C 88.5955,164.692 87.9288,167.692 86.5,170.5C 78.4806,173.67 70.4806,177.17 62.5,181C 58.9733,181.808 55.6399,181.641 52.5,180.5C 46.3349,176.523 44.1683,170.856 46,163.5C 50.8658,153.498 58.6992,147.498 69.5,145.5 Z M 83.5,162.5 C 84.2972,165.41 83.2972,167.743 80.5,169.5C 80.1663,166.509 81.1663,164.176 83.5,162.5 Z"/></g>
<g><path style="opacity:0.506" fill="#c79b60" d="M 76.5,171.5 C 73.6,174.786 69.9334,176.786 65.5,177.5C 68.9988,175.25 72.6654,173.25 76.5,171.5 Z"/></g>
<g><path style="opacity:0.639" fill="#c79c61" d="M 80.5,169.5 C 83.2972,167.743 84.2972,165.41 83.5,162.5C 84.209,161.596 85.209,161.263 86.5,161.5C 87.1252,164.97 86.1252,167.804 83.5,170C 82.2506,170.74 81.2506,170.573 80.5,169.5 Z"/></g>
<g><path style="opacity:0.5" fill="#cfa164" d="M 83.5,159.5 C 80.2841,161.573 78.2841,164.573 77.5,168.5C 78.9028,170.417 78.5695,171.417 76.5,171.5C 74.6913,165.12 77.0246,161.12 83.5,159.5 Z"/></g>
<g><path style="opacity:0.818" fill="#c99f63" d="M 94.5,155.5 C 93.3599,157.78 92.1932,160.114 91,162.5C 88.8165,174.918 86.3165,187.251 83.5,199.5C 82.8333,199.5 82.1667,199.5 81.5,199.5C 83.8104,189.947 85.4771,180.281 86.5,170.5C 87.9288,167.692 88.5955,164.692 88.5,161.5C 89.6896,159.645 91.0229,157.812 92.5,156C 93.0944,155.536 93.7611,155.369 94.5,155.5 Z"/></g>
<g><path style="opacity:0.314" fill="#b28f5e" d="M 65.5,177.5 C 63.2866,179.312 60.9533,179.645 58.5,178.5C 60.8056,178.007 63.139,177.674 65.5,177.5 Z"/></g>
</svg>
